<?xml version="1.0" encoding="utf-8"?>
<!-- Generator: Adobe Illustrator 24.1.0, SVG Export Plug-In . SVG Version: 6.00 Build 0)  -->
<svg version="1.1" id="Layer_1" xmlns="http://www.w3.org/2000/svg" xmlns:xlink="http://www.w3.org/1999/xlink" x="0px" y="0px"
	 viewBox="0 0 1366 768" style="enable-background:new 0 0 1366 768;" xml:space="preserve">
<style type="text/css">
	.st0{fill:#FFAD33;}
	.st1{fill:none;stroke:#FFAD33;stroke-width:30;stroke-miterlimit:10;}
	.st2{fill:#FFAD33;stroke:#FFAD33;stroke-width:14;stroke-miterlimit:10;}
	.st3{fill:#FFAD33;stroke:#FFAD33;stroke-width:20;stroke-miterlimit:10;}
	.st4{fill:none;stroke:#FFAD33;stroke-width:20;stroke-miterlimit:10;}
</style>
<g>
	<path class="st0" d="M492.5,127c22.33,0,40.5,18.17,40.5,40.5S514.83,208,492.5,208c-22.33,0-40.5-18.17-40.5-40.5
		S470.17,127,492.5,127 M492.5,97c-38.94,0-70.5,31.56-70.5,70.5s31.56,70.5,70.5,70.5s70.5-31.56,70.5-70.5S531.44,97,492.5,97
		L492.5,97z"/>
</g>
<path class="st1" d="M580.86,414.91C631,352.96,656.58,272.17,495,238c0,0-207.19,18.51-97.09,163.07"/>
<path class="st2" d="M793,601"/>
<path class="st3" d="M615.32,309.25"/>
<path class="st4" d="M953,276"/>
</svg>
